<svg xmlns="http://www.w3.org/2000/svg" viewBox="0 0 161.03 45.74"><defs><style>.cls-1,.cls-2{fill:#b5001f;}.cls-2{opacity:0.21;}</style></defs><g id="Layer_2" data-name="Layer 2"><g id="Layer_1-2" data-name="Layer 1"><path class="cls-1" d="M110.91,10.65c7,.14,8.94,1.73,10,3.3s-.24,6.36-.24,6.36c0,.29.25.07.25.07a6.26,6.26,0,0,0,1.58-8.86c-3.17-4.29-13.92-3.34-17.9-3.34s-34.45,2.28-34.45,2.28Z"/><path class="cls-1" d="M97.11,6.93c-.7-.78-4.91-3.14-5.5-3.55S85.33-.59,74.39.09a50.37,50.37,0,0,0-22,6.21,15.73,15.73,0,0,1-8.81,2.08c-1.25,0-6.26.59-7.73,4.16s1.37,7.37,2,7.71.57-.27.57-.27c-1.23-4.05-1-6.16,1.19-7.71s6.84-1.54,6.84-1.54l16.33-.14c1,0,0-.55,0-.55L59,8.38s-1.21-.42-.55-1a14.8,14.8,0,0,1,2.87-1.51c9.42-4.3,17.46-3.37,22.84-3.12S96.37,7.51,96.37,7.51C97.14,7.69,97.81,7.71,97.11,6.93ZM78.38,1.55a4.52,4.52,0,0,1-1,.14,43.32,43.32,0,0,0-6,.4c-3.59.45-12,3.07-13.79,3.17-1.46.08-.07-.63-.07-.63a55.72,55.72,0,0,1,8.28-2.69A69.79,69.79,0,0,1,76.68.79s1.59-.17,1.86,0A.39.39,0,0,1,78.38,1.55Z"/><path class="cls-1" d="M71.16,18.7a.19.19,0,0,1,0-.32A3.27,3.27,0,0,0,73,15.89a2.87,2.87,0,0,0-.52-1.81A4.57,4.57,0,0,0,69,12.45H60.22l1.55,2.08a1,1,0,0,0,1,.31H69a1,1,0,0,1,1,1h0a1,1,0,0,1-1,1H63.39l1.26,1.77a1,1,0,0,0,1,.43,4.25,4.25,0,0,1,1.93.06c.84.26,1.77,1.65,2,2s.33.33.33.33h3.7v-.19Z"/><path class="cls-1" d="M51.26,19.26a.22.22,0,0,0-.19-.34l-3.2,0a2,2,0,0,1-2-2h0a2,2,0,0,1,2-2h6a.5.5,0,0,0,.42-.23l1.19-1.81a.26.26,0,0,0-.22-.41H47.85a4.73,4.73,0,0,0-4.73,4.73h0a4.22,4.22,0,0,0,4.22,4.22H49.6a.49.49,0,0,0,.39-.2Z"/><path class="cls-1" d="M54.87,20.37,58,15.61l1.58,2.19s.38.48-.21.46l-1.26,0a1.65,1.65,0,0,0-1.51,1s-.52.82.24.79L60.7,20a.67.67,0,0,1,.84.53c.09.52.79.82,1.33.91h2.77l-6.41-8.74a.54.54,0,0,0-.42-.21H58a2.11,2.11,0,0,0-1.77,1c-1.42,2.16-4.1,6.23-5.24,8h2.24A2.47,2.47,0,0,0,54.87,20.37Z"/><path class="cls-1" d="M101.68,18.67a.19.19,0,0,1,0-.32,3.27,3.27,0,0,0,1.83-2.49,2.87,2.87,0,0,0-.52-1.81,4.58,4.58,0,0,0-3.52-1.64H90.74l1.55,2.09a1,1,0,0,0,1,.31h6.22a1,1,0,0,1,1,1h0a1,1,0,0,1-1,1H93.91l1.26,1.77a1,1,0,0,0,1,.43,4.25,4.25,0,0,1,1.93.06c.85.25,1.77,1.65,2,2s.33.34.33.34h3.71v-.19Z"/><path class="cls-1" d="M84.84,20.34,88,15.58l1.59,2.19s.37.47-.21.46l-1.27,0a1.65,1.65,0,0,0-1.51,1s-.51.82.24.79l3.82-.07a.67.67,0,0,1,.84.53c.1.52.8.82,1.33.91h2.78L89.2,12.63a.5.5,0,0,0-.42-.22H88a2.12,2.12,0,0,0-1.77,1c-1.42,2.16-4.09,6.23-5.24,8h2.25A2.52,2.52,0,0,0,84.84,20.34Z"/><rect class="cls-1" x="105.98" y="12.58" width="2.55" height="8.84" rx="1.28"/><path class="cls-1" d="M110.61,14.36l0-1.41a.49.49,0,0,1,.52-.41l2.66-.11s.5,0,.51.72c0,0,0,3.54,0,3.8s0,2.19-.74,2.85a3.87,3.87,0,0,1-3.32,1.48s-.33,0-.31-.44l0-1.06s0-.43.15-.5a2,2,0,0,0,1.83-2.07s0-1.74,0-2c0,0,0-.44-.38-.39H111S110.57,14.89,110.61,14.36Z"/><path class="cls-2" d="M80.71,8.63l-.88-5.09a24.83,24.83,0,0,1,14.67,4Z"/><path class="cls-1" d="M50.38,24.25a.6.6,0,0,0-.2-.14.71.71,0,0,0-.26-.05.76.76,0,0,0-.27.05.72.72,0,0,0-.2.14.73.73,0,0,0-.13.23,1.19,1.19,0,0,0,0,.29,1.36,1.36,0,0,0,0,.3.67.67,0,0,0,.13.22.56.56,0,0,0,.2.14.76.76,0,0,0,.27.05.71.71,0,0,0,.26-.05.48.48,0,0,0,.2-.14.54.54,0,0,0,.13-.22,1,1,0,0,0,0-.3.85.85,0,0,0,0-.29A.58.58,0,0,0,50.38,24.25Z"/><path class="cls-1" d="M53.92,24.25a.57.57,0,0,1,0-.14,1,1,0,0,0,0,.14,1,1,0,0,1,0,.1l-.24.67h.64L54,24.35Z"/><path class="cls-1" d="M58.76,24.25a.72.72,0,0,0-.2-.14.76.76,0,0,0-.27-.05.75.75,0,0,0-.26.05.6.6,0,0,0-.2.14.58.58,0,0,0-.13.23.85.85,0,0,0,0,.29,1,1,0,0,0,0,.3.54.54,0,0,0,.13.22.48.48,0,0,0,.2.14.75.75,0,0,0,.26.05.76.76,0,0,0,.27-.05.56.56,0,0,0,.2-.14.52.52,0,0,0,.12-.22.94.94,0,0,0,0-.3.84.84,0,0,0,0-.29A.56.56,0,0,0,58.76,24.25Z"/><path class="cls-1" d="M63.47,24.25a.6.6,0,0,0-.2-.14.68.68,0,0,0-.26,0h-.39v1.41H63a.67.67,0,0,0,.26-.05.48.48,0,0,0,.2-.14.54.54,0,0,0,.13-.22,1,1,0,0,0,0-.3.85.85,0,0,0,0-.29A.65.65,0,0,0,63.47,24.25Z"/><path class="cls-1" d="M69.71,24.25a.6.6,0,0,0-.2-.14.67.67,0,0,0-.26-.05.76.76,0,0,0-.27.05.9.9,0,0,0-.2.14.71.71,0,0,0-.12.23.84.84,0,0,0,0,.29.94.94,0,0,0,0,.3.54.54,0,0,0,.32.36.76.76,0,0,0,.27.05.67.67,0,0,0,.26-.05.48.48,0,0,0,.2-.14.54.54,0,0,0,.13-.22,1,1,0,0,0,0-.3.85.85,0,0,0,0-.29A.58.58,0,0,0,69.71,24.25Z"/><path class="cls-1" d="M76.14,24.37a.26.26,0,0,0-.1-.23.52.52,0,0,0-.31-.08h-.24v.66h.24a.5.5,0,0,0,.18,0,.4.4,0,0,0,.13-.07.32.32,0,0,0,.08-.12A.52.52,0,0,0,76.14,24.37Z"/><path class="cls-1" d="M79.88,24.25s0-.09,0-.14,0,.1,0,.14a.3.3,0,0,1,0,.1l-.24.67h.64l-.24-.67A.3.3,0,0,1,79.88,24.25Z"/><path class="cls-1" d="M87.24,24.25a.9.9,0,0,0-.2-.14.76.76,0,0,0-.27-.05.71.71,0,0,0-.26.05.6.6,0,0,0-.2.14.58.58,0,0,0-.13.23.84.84,0,0,0-.05.29.94.94,0,0,0,.05.3.54.54,0,0,0,.13.22.48.48,0,0,0,.2.14.71.71,0,0,0,.26.05.76.76,0,0,0,.27-.05.54.54,0,0,0,.32-.36.94.94,0,0,0,0-.3.84.84,0,0,0,0-.29A.71.71,0,0,0,87.24,24.25Z"/><path class="cls-1" d="M97,24.25s0-.09,0-.14,0,.1,0,.14a.3.3,0,0,1,0,.1l-.24.67h.64l-.24-.67A.3.3,0,0,1,97,24.25Z"/><path class="cls-1" d="M99.2,24.37a.26.26,0,0,0-.1-.23.52.52,0,0,0-.31-.08h-.24v.66h.24a.5.5,0,0,0,.18,0,.4.4,0,0,0,.13-.07.5.5,0,0,0,.08-.12A.52.52,0,0,0,99.2,24.37Z"/><path class="cls-1" d="M105.3,24.25a.57.57,0,0,1,0-.14,1,1,0,0,0,0,.14,1,1,0,0,1,0,.1l-.24.67h.64l-.25-.67Z"/><path class="cls-1" d="M39.12,22.8a3.72,3.72,0,0,0,3.72,3.72h73.29a3.72,3.72,0,0,0,3.73-3.72Zm9.74,3H47.68v-2h.38v1.7h.8Zm2-.6a.93.93,0,0,1-.21.33.81.81,0,0,1-.32.21,1.07,1.07,0,0,1-.41.08,1.16,1.16,0,0,1-.42-.08,1,1,0,0,1-.32-.21.93.93,0,0,1-.21-.33,1.07,1.07,0,0,1-.07-.41,1.14,1.14,0,0,1,.07-.41,1,1,0,0,1,.21-.32,1.21,1.21,0,0,1,.32-.22,1.16,1.16,0,0,1,.42-.07,1.07,1.07,0,0,1,.41.07,1,1,0,0,1,.32.22,1,1,0,0,1,.21.32,1.14,1.14,0,0,1,.07.41A1.07,1.07,0,0,1,50.86,25.18Zm.68-.11a.73.73,0,0,0,.13.23.72.72,0,0,0,.2.14.59.59,0,0,0,.23,0h.14l.12,0,.09-.05.1-.07,0,0h0a.05.05,0,0,1,0,0l.15.16a.76.76,0,0,1-.3.23,1.1,1.1,0,0,1-.43.08,1,1,0,0,1-.4-.08.86.86,0,0,1-.5-.53,1.16,1.16,0,0,1-.07-.42,1.07,1.07,0,0,1,.08-.41A1,1,0,0,1,51.4,24a1,1,0,0,1,.32-.21,1.16,1.16,0,0,1,.42-.07.94.94,0,0,1,.39.07.86.86,0,0,1,.29.19l-.12.17,0,0h-.05l-.07,0-.08-.06-.13-.05a.56.56,0,0,0-.2,0,.75.75,0,0,0-.26.05.5.5,0,0,0-.2.15.55.55,0,0,0-.14.22.88.88,0,0,0,0,.29A.85.85,0,0,0,51.54,25.07Zm3,.71a.11.11,0,0,1-.08,0,.1.1,0,0,1-.05-.06l-.15-.41h-.83l-.15.41,0,.06a.11.11,0,0,1-.08,0H52.9l.79-2h.38l.79,2Zm1.71-1.7h-.61v1.7H55.3v-1.7h-.61v-.31h1.59Zm.65,1.7h-.37v-2h.37Zm2.31-.6a.93.93,0,0,1-.21.33.89.89,0,0,1-.32.21,1.08,1.08,0,0,1-.42.08,1.07,1.07,0,0,1-.41-.08.89.89,0,0,1-.32-.21.93.93,0,0,1-.21-.33,1.07,1.07,0,0,1-.07-.41,1.14,1.14,0,0,1,.07-.41,1,1,0,0,1,.21-.32.94.94,0,0,1,.73-.29,1.09,1.09,0,0,1,.42.07A1.07,1.07,0,0,1,59,24a1,1,0,0,1,.21.32,1.14,1.14,0,0,1,.07.41A1.07,1.07,0,0,1,59.24,25.18Zm2.06.6h-.19l-.08,0a.12.12,0,0,1-.05-.05l-1-1.33v.08s0,.06,0,.08v1.24h-.33v-2h.26l0,0,0,0,1,1.34s0-.06,0-.09V23.77h.33Zm2.65-.6a1.16,1.16,0,0,1-.2.32.91.91,0,0,1-.33.2,1.07,1.07,0,0,1-.41.08h-.77v-2H63a1.07,1.07,0,0,1,.41.07.93.93,0,0,1,.33.21,1,1,0,0,1,.2.32,1.06,1.06,0,0,1,.08.4A1.07,1.07,0,0,1,64,25.18Zm1.64-1.11H64.7v.55h.7v.29h-.7v.57h.89v.3H64.32v-2h1.27Zm1.81,1.71h-.34l-.81-2h.3l.08,0a.21.21,0,0,1,0,.06l.48,1.23s0,.08,0,.13a.83.83,0,0,1,0,.15,1.58,1.58,0,0,1,.08-.28l.47-1.23,0-.05a.11.11,0,0,1,.08,0h.3Zm2.79-.6a1.08,1.08,0,0,1-.2.33,1,1,0,0,1-.32.21,1.14,1.14,0,0,1-.84,0,1,1,0,0,1-.32-.21.93.93,0,0,1-.21-.33,1.07,1.07,0,0,1-.07-.41,1.14,1.14,0,0,1,.07-.41,1,1,0,0,1,.21-.32,1.21,1.21,0,0,1,.32-.22,1.3,1.3,0,0,1,.84,0A1.21,1.21,0,0,1,70,24a1.09,1.09,0,0,1,.28.73A1.07,1.07,0,0,1,70.19,25.18Zm.79.6h-.37v-2H71Zm1.87-1.7h-.61v1.7h-.37v-1.7h-.61v-.31h1.59Zm1.88.89a.88.88,0,0,1-.06.33.77.77,0,0,1-.17.27.78.78,0,0,1-.26.17,1,1,0,0,1-.35.06.93.93,0,0,1-.34-.06.69.69,0,0,1-.26-.17.77.77,0,0,1-.17-.27.88.88,0,0,1-.06-.33v-1.2h.38V25a.66.66,0,0,0,0,.21.51.51,0,0,0,.09.16.36.36,0,0,0,.14.1.58.58,0,0,0,.19,0,.59.59,0,0,0,.2,0,.36.36,0,0,0,.14-.1.42.42,0,0,0,.09-.16.66.66,0,0,0,0-.21v-1.2h.38Zm1.62.81-.08,0-.06-.06-.42-.64s0,0-.05,0l-.09,0h-.16v.79h-.37v-2h.61a1.28,1.28,0,0,1,.36,0,.9.9,0,0,1,.24.12.46.46,0,0,1,.13.18.6.6,0,0,1,.05.24.63.63,0,0,1,0,.19.51.51,0,0,1-.09.16.58.58,0,0,1-.14.13.56.56,0,0,1-.19.09.49.49,0,0,1,.13.12l.5.74Zm1.84-1.71H77.3v.55H78v.29H77.3v.57h.89v.3H76.93v-2h1.26Zm2.34,1.71a.11.11,0,0,1-.08,0,.09.09,0,0,1,0-.06l-.15-.41h-.84l-.15.41s0,0,0,.06a.11.11,0,0,1-.08,0h-.29l.79-2H80l.79,2Zm.92,0h-.38v-2h.38Zm.76-.71a.73.73,0,0,0,.13.23.72.72,0,0,0,.2.14.59.59,0,0,0,.23,0h.14l.12,0,.1-.05.09-.07,0,0h0a.05.05,0,0,1,0,0l.15.16a.76.76,0,0,1-.3.23,1.1,1.1,0,0,1-.43.08,1,1,0,0,1-.4-.08.86.86,0,0,1-.5-.53,1.42,1.42,0,0,1-.07-.42,1.07,1.07,0,0,1,.08-.41,1,1,0,0,1,.21-.33,1,1,0,0,1,.32-.21,1.16,1.16,0,0,1,.42-.07.94.94,0,0,1,.39.07.86.86,0,0,1,.29.19l-.12.17,0,0h0l-.07,0-.08-.06L83,24.09a.56.56,0,0,0-.2,0,.75.75,0,0,0-.26.05.5.5,0,0,0-.2.15.55.55,0,0,0-.14.22.88.88,0,0,0,0,.29A.85.85,0,0,0,82.21,25.07Zm3.25.71h-.38V24.9h-.94v.88h-.38v-2h.38v.86h.94v-.86h.38Zm2.26-.6a.93.93,0,0,1-.21.33,1,1,0,0,1-.32.21,1.16,1.16,0,0,1-.42.08,1.07,1.07,0,0,1-.41-.08.93.93,0,0,1-.33-.21.91.91,0,0,1-.2-.33,1.07,1.07,0,0,1-.08-.41,1.15,1.15,0,0,1,.08-.41A1,1,0,0,1,86,24a1.12,1.12,0,0,1,.33-.22,1.07,1.07,0,0,1,.41-.07,1.16,1.16,0,0,1,.42.07,1.21,1.21,0,0,1,.32.22,1,1,0,0,1,.21.32,1.41,1.41,0,0,1,.07.41A1.3,1.3,0,0,1,87.72,25.18Zm2-.21a.88.88,0,0,1-.06.33,1,1,0,0,1-.17.27.78.78,0,0,1-.26.17,1,1,0,0,1-.35.06,1,1,0,0,1-.35-.06.78.78,0,0,1-.26-.17.92.92,0,0,1-.16-.27.88.88,0,0,1-.06-.33v-1.2h.37V25a.66.66,0,0,0,0,.21l.09.16a.4.4,0,0,0,.15.1.53.53,0,0,0,.19,0,.65.65,0,0,0,.2,0,.45.45,0,0,0,.14-.1.42.42,0,0,0,.09-.16.66.66,0,0,0,0-.21v-1.2h.38Zm.69.1a.58.58,0,0,0,.13.23.51.51,0,0,0,.43.18h.14l.11,0,.1-.05.09-.07,0,0h0s0,0,.05,0l.15.16a.93.93,0,0,1-.3.23,1.14,1.14,0,0,1-.43.08,1.07,1.07,0,0,1-.41-.08.9.9,0,0,1-.3-.21.94.94,0,0,1-.19-.32,1.16,1.16,0,0,1-.07-.42,1.07,1.07,0,0,1,.07-.41.91.91,0,0,1,.22-.33.89.89,0,0,1,.32-.21,1.16,1.16,0,0,1,.42-.07.94.94,0,0,1,.39.07,1,1,0,0,1,.29.19l-.13.17s0,0,0,0h0l-.07,0-.08-.06-.13-.05a.6.6,0,0,0-.2,0,.71.71,0,0,0-.26.05.62.62,0,0,0-.21.15.67.67,0,0,0-.13.22.88.88,0,0,0,0,.29A.85.85,0,0,0,90.42,25.07Zm3.24.71h-.37V24.9h-1v.88H92v-2h.37v.86h1v-.86h.37Zm1.68-1.71h-.9v.55h.71v.29h-.71v.57h.9v.3H94.07v-2h1.27Zm2.33,1.71a.11.11,0,0,1-.08,0,.09.09,0,0,1,0-.06l-.15-.41h-.84l-.15.41s0,0,0,.06a.11.11,0,0,1-.08,0H96l.79-2h.38l.79,2Zm1.74,0-.08,0-.06-.06-.42-.64,0,0-.09,0h-.16v.79h-.37v-2h.61a1.16,1.16,0,0,1,.35,0,.67.67,0,0,1,.24.12.4.4,0,0,1,.14.18.6.6,0,0,1,0,.24.63.63,0,0,1,0,.19.51.51,0,0,1-.09.16.58.58,0,0,1-.14.13.56.56,0,0,1-.19.09.49.49,0,0,1,.13.12l.5.74Zm1,0H100v-2h.38Zm1.26-.72a1.37,1.37,0,0,1,0,.31.58.58,0,0,1-.13.23.62.62,0,0,1-.2.15.88.88,0,0,1-.29.05h-.15l-.15,0,0-.22a.08.08,0,0,1,0-.05l.06,0H101l.14,0,.1-.07a.31.31,0,0,0,.06-.13.62.62,0,0,0,0-.2v-1.3h.38Zm1.25,0a.73.73,0,0,0,.13.23.72.72,0,0,0,.2.14.59.59,0,0,0,.23,0h.14l.12,0,.1-.05.09-.07,0,0h0a.05.05,0,0,1,.05,0l.15.16a.76.76,0,0,1-.3.23,1.1,1.1,0,0,1-.43.08,1,1,0,0,1-.4-.08.86.86,0,0,1-.5-.53,1.42,1.42,0,0,1-.07-.42,1.07,1.07,0,0,1,.08-.41,1,1,0,0,1,.21-.33,1,1,0,0,1,.32-.21,1.16,1.16,0,0,1,.42-.07.94.94,0,0,1,.39.07.86.86,0,0,1,.29.19l-.12.17,0,0h0l-.07,0-.08-.06-.13-.05a.56.56,0,0,0-.2,0,.75.75,0,0,0-.26.05.5.5,0,0,0-.2.15.55.55,0,0,0-.14.22.88.88,0,0,0,0,.29A.85.85,0,0,0,102.92,25.07Zm3,.71a.11.11,0,0,1-.08,0,.1.1,0,0,1-.05-.06l-.15-.41h-.83l-.15.41a.21.21,0,0,1,0,.06.11.11,0,0,1-.08,0h-.29l.79-2h.38l.79,2Zm1.74,0-.08,0a.09.09,0,0,1-.06-.06l-.42-.64-.06,0a.13.13,0,0,0-.08,0h-.16v.79h-.37v-2h.61a1.2,1.2,0,0,1,.35,0,.67.67,0,0,1,.24.12.49.49,0,0,1,.14.18.61.61,0,0,1,0,.24.63.63,0,0,1,0,.19.8.8,0,0,1-.08.16.86.86,0,0,1-.14.13.66.66,0,0,1-.19.09.34.34,0,0,1,.12.12l.5.74Z"/><path class="cls-1" d="M107.48,24.37a.29.29,0,0,0-.1-.23.52.52,0,0,0-.31-.08h-.24v.66h.23a.55.55,0,0,0,.19,0l.13-.07a.45.45,0,0,0,.1-.26Z"/><path class="cls-1" d="M10.82,45.61H9.23a.68.68,0,0,1-.44-.13.73.73,0,0,1-.25-.33l-.83-2.27H3.11l-.82,2.27a.9.9,0,0,1-.25.32.65.65,0,0,1-.44.14H0L4.36,34.52H6.47ZM3.64,41.43H7.18L5.83,37.74c-.06-.17-.13-.36-.2-.58s-.15-.47-.22-.73c-.07.26-.15.51-.21.73s-.14.42-.21.59Z"/><path class="cls-1" d="M14.29,45.61H12.22V34.52h2.07Z"/><path class="cls-1" d="M24.4,43a.36.36,0,0,1,.29.13l.82.88a4.42,4.42,0,0,1-1.66,1.28,5.69,5.69,0,0,1-2.37.45,5.46,5.46,0,0,1-2.22-.43,4.79,4.79,0,0,1-1.68-1.17,5.12,5.12,0,0,1-1.07-1.79,6.73,6.73,0,0,1-.37-2.28,6.06,6.06,0,0,1,.41-2.29A5.2,5.2,0,0,1,17.72,36a5.34,5.34,0,0,1,1.79-1.17,6.18,6.18,0,0,1,2.32-.42,5.37,5.37,0,0,1,2.16.4,5.11,5.11,0,0,1,1.58,1l-.69,1a.49.49,0,0,1-.16.16.4.4,0,0,1-.26.07.55.55,0,0,1-.36-.14,4.4,4.4,0,0,0-.47-.29,3.55,3.55,0,0,0-.72-.3,3.42,3.42,0,0,0-1.1-.14,3.77,3.77,0,0,0-1.44.27,3.14,3.14,0,0,0-1.12.78,3.61,3.61,0,0,0-.74,1.23,4.64,4.64,0,0,0-.27,1.63,4.74,4.74,0,0,0,.27,1.66A3.54,3.54,0,0,0,19.23,43a3,3,0,0,0,1.06.76,3.25,3.25,0,0,0,1.32.27,5.7,5.7,0,0,0,.76-.05A3.66,3.66,0,0,0,23,43.8a3.1,3.1,0,0,0,.55-.26,3.46,3.46,0,0,0,.51-.39.91.91,0,0,1,.16-.11A.39.39,0,0,1,24.4,43Z"/><path class="cls-1" d="M36.42,45.61H34.34V40.77h-5.2v4.84H27.06V34.52h2.08v4.77h5.2V34.52h2.08Z"/><path class="cls-1" d="M49.3,40.07a6.22,6.22,0,0,1-.41,2.26,5.41,5.41,0,0,1-1.14,1.8A5.18,5.18,0,0,1,46,45.31a6.34,6.34,0,0,1-4.59,0,5.13,5.13,0,0,1-1.78-1.18,5.29,5.29,0,0,1-1.15-1.8,6.43,6.43,0,0,1,0-4.52A5.29,5.29,0,0,1,39.61,36a5.13,5.13,0,0,1,1.78-1.18,6.34,6.34,0,0,1,4.59,0A5.21,5.21,0,0,1,47.75,36a5.27,5.27,0,0,1,1.14,1.79A6.18,6.18,0,0,1,49.3,40.07Zm-2.12,0a5.19,5.19,0,0,0-.24-1.64,3.38,3.38,0,0,0-.7-1.23,2.88,2.88,0,0,0-1.1-.77,4.08,4.08,0,0,0-2.92,0,2.92,2.92,0,0,0-1.11.77,3.53,3.53,0,0,0-.7,1.23,5.5,5.5,0,0,0,0,3.28,3.4,3.4,0,0,0,.7,1.22,2.81,2.81,0,0,0,1.11.77,4.08,4.08,0,0,0,2.92,0,2.78,2.78,0,0,0,1.1-.77,3.26,3.26,0,0,0,.7-1.22A5.24,5.24,0,0,0,47.18,40.07Z"/><path class="cls-1" d="M55.39,44a2.79,2.79,0,0,0,1.07-.2,2.15,2.15,0,0,0,.79-.56,2.34,2.34,0,0,0,.5-.87,3.51,3.51,0,0,0,.18-1.15V34.52H60v6.65A5.08,5.08,0,0,1,59.67,43a4,4,0,0,1-.92,1.45,4.18,4.18,0,0,1-1.45,1,5.2,5.2,0,0,1-1.91.34,5.3,5.3,0,0,1-1.92-.34A4.09,4.09,0,0,1,51.11,43a5.08,5.08,0,0,1-.32-1.82V34.52h2.07v6.64A3.47,3.47,0,0,0,53,42.31a2.6,2.6,0,0,0,.49.88,2.18,2.18,0,0,0,.8.56A2.76,2.76,0,0,0,55.39,44Z"/><path class="cls-1" d="M69.71,43a.37.37,0,0,1,.29.13l.82.88a4.42,4.42,0,0,1-1.66,1.28,5.69,5.69,0,0,1-2.37.45,5.46,5.46,0,0,1-2.22-.43,4.79,4.79,0,0,1-1.68-1.17,5.12,5.12,0,0,1-1.07-1.79,6.73,6.73,0,0,1-.37-2.28,6.06,6.06,0,0,1,.41-2.29A5.2,5.2,0,0,1,63,36a5.34,5.34,0,0,1,1.79-1.17,6.18,6.18,0,0,1,2.32-.42,5.29,5.29,0,0,1,2.15.4,5,5,0,0,1,1.59,1l-.69,1A.61.61,0,0,1,70,37a.4.4,0,0,1-.26.07.55.55,0,0,1-.36-.14,4.4,4.4,0,0,0-.47-.29,3.55,3.55,0,0,0-.72-.3,3.42,3.42,0,0,0-1.1-.14,3.77,3.77,0,0,0-1.44.27,3.14,3.14,0,0,0-1.12.78,3.61,3.61,0,0,0-.74,1.23,4.64,4.64,0,0,0-.27,1.63,4.74,4.74,0,0,0,.27,1.66A3.54,3.54,0,0,0,64.54,43a3,3,0,0,0,1.06.76,3.25,3.25,0,0,0,1.32.27,5.7,5.7,0,0,0,.76-.05,3.66,3.66,0,0,0,.63-.14,3,3,0,0,0,1.06-.65.91.91,0,0,1,.16-.11A.37.37,0,0,1,69.71,43Z"/><path class="cls-1" d="M81.73,45.61H79.65V40.77h-5.2v4.84H72.37V34.52h2.08v4.77h5.2V34.52h2.08Z"/><path class="cls-1" d="M91,34.52v1.65H86.05v3.07h3.87v1.59H86.05V44H91v1.64H84V34.52Z"/><path class="cls-1" d="M105.46,45.61h-1.6a.7.7,0,0,1-.44-.13.81.81,0,0,1-.25-.33l-.83-2.27H97.75l-.83,2.27a.77.77,0,0,1-.24.32.66.66,0,0,1-.44.14h-1.6L99,34.52h2.11Zm-7.18-4.18h3.54l-1.35-3.69c-.07-.17-.13-.36-.21-.58s-.14-.47-.22-.73c-.07.26-.14.51-.21.73s-.13.42-.2.59Z"/><path class="cls-1" d="M108.73,41.28v4.33h-2.06V34.52h3.38a6.93,6.93,0,0,1,2,.24,3.55,3.55,0,0,1,1.32.65,2.55,2.55,0,0,1,.76,1,3.37,3.37,0,0,1,.24,1.29,3.32,3.32,0,0,1-.16,1.06,2.94,2.94,0,0,1-.48.91,3,3,0,0,1-.76.71,3.83,3.83,0,0,1-1,.49,2,2,0,0,1,.67.64l2.78,4.09h-1.86a.88.88,0,0,1-.45-.1.86.86,0,0,1-.32-.31l-2.33-3.55a.85.85,0,0,0-.29-.28,1,1,0,0,0-.47-.09Zm0-1.48H110a3.13,3.13,0,0,0,1-.15,1.88,1.88,0,0,0,.71-.4,1.52,1.52,0,0,0,.42-.61,2.11,2.11,0,0,0,.14-.77,1.59,1.59,0,0,0-.56-1.3,2.68,2.68,0,0,0-1.7-.45h-1.32Z"/><path class="cls-1" d="M119,45.61H116.9V34.52H119Z"/><path class="cls-1" d="M125.93,41.67a5.85,5.85,0,0,1-.23,1.69,3.66,3.66,0,0,1-.69,1.28,3,3,0,0,1-1.14.81,4.07,4.07,0,0,1-1.59.29,7.34,7.34,0,0,1-.81-.05c-.26,0-.54-.09-.83-.16l.1-1.23a.43.43,0,0,1,.13-.27.45.45,0,0,1,.33-.1,1.26,1.26,0,0,1,.34,0,2,2,0,0,0,.53.05,2.26,2.26,0,0,0,.77-.12,1.31,1.31,0,0,0,.57-.41,1.88,1.88,0,0,0,.34-.71,4.19,4.19,0,0,0,.11-1.07v-7.2h2.07Z"/><path class="cls-1" d="M138.75,43a.37.37,0,0,1,.29.13l.81.88a4.35,4.35,0,0,1-1.66,1.28,5.61,5.61,0,0,1-2.36.45,5.4,5.4,0,0,1-2.22-.43,4.93,4.93,0,0,1-1.69-1.17,5.27,5.27,0,0,1-1.07-1.79,7,7,0,0,1-.37-2.28,6.06,6.06,0,0,1,.42-2.29A5.17,5.17,0,0,1,132.06,36a5.29,5.29,0,0,1,1.8-1.17,6.17,6.17,0,0,1,2.31-.42,5.3,5.3,0,0,1,2.16.4,5,5,0,0,1,1.59,1l-.69,1a.81.81,0,0,1-.16.16.43.43,0,0,1-.27.07.59.59,0,0,1-.36-.14,4.17,4.17,0,0,0-.46-.29,3.55,3.55,0,0,0-.72-.3,3.46,3.46,0,0,0-1.1-.14,3.77,3.77,0,0,0-1.44.27,3.18,3.18,0,0,0-1.13.78,3.59,3.59,0,0,0-.73,1.23,4.64,4.64,0,0,0-.27,1.63,4.74,4.74,0,0,0,.27,1.66,3.52,3.52,0,0,0,.71,1.23,3,3,0,0,0,1.07.76A3.25,3.25,0,0,0,136,44a5.81,5.81,0,0,0,.76-.05,3.66,3.66,0,0,0,.63-.14,3.36,3.36,0,0,0,.54-.26,2.66,2.66,0,0,0,.51-.39l.17-.11A.34.34,0,0,1,138.75,43Z"/><path class="cls-1" d="M151.16,45.61h-1.6a.7.7,0,0,1-.44-.13.81.81,0,0,1-.25-.33L148,42.88h-4.59l-.83,2.27a.77.77,0,0,1-.24.32.66.66,0,0,1-.44.14h-1.6l4.35-11.09h2.11ZM144,41.43h3.54l-1.35-3.69c-.07-.17-.13-.36-.21-.58s-.14-.47-.22-.73c-.07.26-.14.51-.21.73s-.13.42-.2.59Z"/><path class="cls-1" d="M154.43,41.28v4.33h-2.06V34.52h3.38a6.93,6.93,0,0,1,1.95.24,3.55,3.55,0,0,1,1.32.65,2.55,2.55,0,0,1,.76,1,3.37,3.37,0,0,1,.24,1.29,3.32,3.32,0,0,1-.16,1.06,2.94,2.94,0,0,1-.48.91,3,3,0,0,1-.76.71,3.83,3.83,0,0,1-1,.49,2,2,0,0,1,.67.64L161,45.61h-1.86a.88.88,0,0,1-.45-.1.86.86,0,0,1-.32-.31l-2.33-3.55a.85.85,0,0,0-.29-.28,1,1,0,0,0-.47-.09Zm0-1.48h1.29a3.13,3.13,0,0,0,1-.15,1.88,1.88,0,0,0,.71-.4,1.52,1.52,0,0,0,.42-.61,2.11,2.11,0,0,0,.14-.77,1.59,1.59,0,0,0-.56-1.3,2.68,2.68,0,0,0-1.7-.45h-1.32Z"/></g></g></svg>